<?xml version="1.0" standalone="no"?>
<!DOCTYPE svg PUBLIC "-//W3C//DTD SVG 20010904//EN"
 "http://www.w3.org/TR/2001/REC-SVG-20010904/DTD/svg10.dtd">
<svg version="1.0" xmlns="http://www.w3.org/2000/svg"
 width="1080.000000pt" height="1080.000000pt" viewBox="0 0 1080.000000 1080.000000"
 preserveAspectRatio="xMidYMid meet">
<metadata>
Created by potrace 1.16, written by Peter Selinger 2001-2019
</metadata>
<g transform="translate(0.000000,1080.000000) scale(0.100000,-0.100000)"
fill="#000000" stroke="none">
<path d="M5205 9116 c-88 -6 -165 -14 -170 -18 -6 -4 -54 -8 -107 -9 -56 -2
-94 -7 -91 -12 6 -10 24 -236 49 -607 9 -129 18 -237 20 -239 8 -9 615 36 625
46 6 6 6 31 2 64 l-8 54 -75 -1 c-41 0 -149 -8 -240 -16 -91 -8 -166 -14 -167
-13 -5 3 -22 239 -19 243 2 2 70 6 150 9 81 3 149 10 152 15 3 4 30 8 61 8
l55 0 -4 60 c-2 33 -6 61 -9 63 -2 2 -49 0 -104 -4 -201 -17 -310 -26 -311
-25 -1 1 -5 54 -9 118 l-7 116 83 6 c162 10 364 27 377 31 16 6 16 97 0 113
-14 14 -32 13 -253 -2z"/>
<path d="M5751 9073 c-14 -54 -51 -265 -51 -295 0 -13 -3 -28 -7 -32 -4 -4
-20 -78 -35 -164 -15 -86 -32 -179 -37 -207 -25 -119 -26 -112 16 -118 21 -4
52 -9 69 -13 38 -7 40 -3 63 141 19 115 2 106 159 82 105 -16 109 -19 143
-112 13 -33 26 -62 29 -65 4 -3 15 -26 25 -53 27 -72 42 -83 113 -92 58 -7 62
-6 62 13 0 12 -5 24 -10 27 -6 4 -8 11 -5 16 4 5 3 9 -2 9 -4 0 -19 28 -32 63
-13 34 -28 64 -32 67 -7 5 -51 113 -46 115 1 1 23 9 49 19 63 23 133 94 153
157 34 102 18 228 -37 286 -11 12 -17 26 -14 32 4 5 1 13 -5 17 -8 4 -9 3 -5
-4 13 -22 -13 -12 -28 10 -9 12 -16 19 -16 14 0 -5 -8 -2 -17 6 -10 8 -34 20
-53 27 -19 7 -44 17 -55 22 -18 8 -248 52 -347 66 -35 5 -37 4 -47 -34z m238
-129 c53 -9 105 -20 116 -24 122 -47 149 -78 148 -168 -3 -162 -83 -199 -341
-156 l-98 16 25 152 c14 83 29 153 33 154 5 2 8 12 8 23 0 23 -8 23 109 3z"/>
<path d="M4285 8944 c-38 -9 -72 -19 -75 -23 -3 -4 -43 -18 -90 -31 -47 -13
-87 -27 -90 -30 -3 -4 -30 -13 -60 -22 l-55 -15 2 -38 c2 -21 7 -41 12 -44 5
-3 19 -42 31 -86 12 -44 26 -84 30 -90 5 -5 18 -46 31 -90 13 -44 26 -82 29
-85 3 -3 17 -41 29 -85 13 -44 27 -84 31 -90 5 -5 18 -48 31 -95 13 -47 27
-86 31 -88 4 -2 8 -9 8 -16 0 -10 14 -10 66 3 l66 16 -6 44 c-3 24 -10 49 -15
55 -8 11 -51 133 -51 147 0 7 6 10 160 65 65 23 126 53 160 78 30 22 59 40 63
38 5 -1 5 3 1 9 -4 7 0 17 8 23 25 19 48 94 48 156 0 103 -51 210 -117 247
-18 9 -33 21 -33 24 0 12 -57 28 -118 33 -34 3 -85 -1 -127 -10z m168 -133
c39 -15 80 -86 85 -147 8 -95 -49 -163 -165 -194 -27 -8 -50 -17 -53 -20 -4
-7 -109 -40 -124 -40 -3 0 -6 5 -6 11 0 5 -9 29 -19 52 -10 23 -27 71 -37 107
-10 36 -20 67 -24 70 -6 5 -30 80 -30 93 0 4 33 16 73 27 39 12 82 26 94 32
56 27 147 31 206 9z"/>
<path d="M3456 8529 c-33 -5 -62 -13 -65 -17 -3 -5 -23 -15 -43 -21 -20 -7
-48 -21 -62 -32 -14 -11 -30 -17 -36 -14 -6 4 -9 3 -8 -2 2 -4 -17 -28 -42
-53 -26 -25 -55 -60 -65 -77 -11 -18 -22 -33 -26 -33 -3 0 -15 -26 -25 -57
-14 -41 -19 -87 -19 -159 0 -94 2 -104 34 -168 91 -178 238 -266 426 -253 75
5 174 30 185 47 3 4 20 15 38 24 48 25 134 115 169 178 52 91 67 242 35 328
-5 14 -10 29 -10 34 0 5 -5 12 -10 15 -5 3 -18 24 -30 46 -30 59 -119 143
-186 176 -51 25 -158 51 -191 48 -5 -1 -37 -5 -69 -10z m149 -138 c3 -5 19
-12 35 -16 47 -10 125 -88 159 -159 41 -83 42 -160 5 -249 -53 -126 -158 -197
-295 -197 -60 0 -159 25 -159 40 0 6 -6 10 -14 10 -17 0 -96 87 -96 106 0 8
-4 14 -10 14 -15 0 -30 71 -30 149 0 89 19 136 86 210 29 33 61 56 92 67 26 9
51 21 57 26 12 11 162 10 170 -1z"/>
<path d="M7533 8273 c-45 -54 -99 -116 -120 -139 -21 -23 -58 -65 -83 -95 -25
-29 -68 -78 -95 -109 -93 -102 -165 -188 -165 -198 0 -13 88 -84 99 -80 4 2
52 54 105 116 54 62 101 110 107 107 5 -3 6 1 2 11 -9 24 21 5 84 -53 28 -26
73 -66 99 -88 27 -22 68 -59 93 -83 l45 -43 38 41 c21 22 38 44 38 48 0 4 -33
35 -72 69 -163 139 -233 203 -233 213 0 13 164 200 176 200 6 0 45 -31 87 -68
42 -38 89 -79 105 -93 15 -13 53 -48 85 -76 31 -29 64 -53 73 -53 8 0 30 15
48 34 28 29 31 37 22 55 -7 12 -16 21 -21 21 -13 0 -76 63 -72 73 1 5 -2 6 -8
2 -5 -3 -25 9 -44 27 -19 18 -57 51 -85 73 -28 22 -48 45 -46 52 2 7 -1 15 -7
19 -7 4 -8 3 -4 -4 16 -26 -10 -9 -79 53 -40 36 -76 65 -81 65 -5 0 -46 -44
-91 -97z"/>
<path d="M6629 8101 c-60 -60 -20 -151 67 -151 38 0 64 18 80 56 12 29 12 39
0 68 -26 64 -97 76 -147 27z"/>
<path d="M8213 7751 c-10 -10 -31 -26 -48 -35 -16 -9 -48 -30 -70 -46 -22 -16
-46 -29 -52 -30 -7 0 -13 -4 -13 -10 0 -5 -17 -19 -37 -30 -53 -29 -192 -129
-229 -165 -17 -17 -39 -46 -49 -65 -10 -19 -21 -37 -26 -40 -4 -3 -12 -32 -17
-65 -11 -68 1 -159 24 -182 8 -8 14 -20 14 -27 0 -7 9 -25 21 -40 11 -14 17
-26 13 -26 -5 0 2 -7 14 -16 22 -15 32 -41 10 -28 -7 4 -8 3 -4 -5 4 -6 11 -9
15 -6 9 5 40 -25 39 -38 0 -5 4 -12 8 -15 4 -4 4 -1 0 6 -11 19 4 14 39 -12
56 -43 157 -58 250 -36 54 12 211 104 355 207 13 10 58 39 99 65 41 26 78 53
82 60 13 21 -41 98 -70 98 -8 0 -105 -61 -216 -135 -111 -74 -205 -135 -210
-135 -5 0 -17 -8 -28 -17 -15 -14 -37 -18 -102 -18 -78 0 -86 2 -122 31 -53
42 -102 136 -103 195 0 91 47 152 197 251 49 32 98 66 111 75 12 9 53 35 90
59 37 24 76 50 87 59 11 8 25 13 31 11 17 -7 4 44 -23 87 -26 41 -52 47 -80
18z"/>
<path d="M2458 7653 c-55 -60 -54 -66 15 -122 90 -74 127 -104 146 -121 17
-15 109 -90 170 -138 18 -15 46 -38 62 -52 16 -14 43 -36 60 -50 18 -14 45
-37 61 -52 48 -45 84 -67 106 -65 11 0 18 5 15 11 -3 5 0 14 8 20 8 6 25 27
38 46 23 32 249 307 278 338 24 25 14 50 -27 73 -22 13 -40 27 -40 31 0 5 -36
-35 -81 -89 -44 -54 -92 -112 -107 -130 -14 -17 -30 -29 -35 -26 -6 4 -7 1 -2
-6 7 -12 -30 -56 -46 -56 -4 0 -11 -4 -16 -9 -5 -5 -2 -6 6 -1 9 5 12 3 9 -6
-10 -29 -36 -17 -123 56 -49 42 -102 86 -117 98 -57 46 -93 82 -90 90 1 5 -2
6 -8 2 -6 -4 -21 2 -33 14 -108 97 -202 171 -219 171 -3 0 -16 -12 -30 -27z"/>
<path d="M2222 7318 c-7 -7 -12 -16 -12 -21 0 -5 -54 -118 -120 -252 -66 -133
-120 -246 -120 -252 0 -6 13 -13 29 -16 16 -3 35 -12 43 -20 8 -8 25 -18 38
-22 14 -4 45 -18 70 -30 151 -77 479 -235 488 -235 5 0 15 -6 21 -14 7 -8 25
-19 42 -25 37 -13 55 5 87 88 13 34 28 61 33 61 5 0 9 6 9 12 0 7 41 95 91
196 50 101 89 189 86 196 -3 7 -22 18 -43 25 -22 7 -44 14 -50 17 -11 4 -204
-371 -204 -396 0 -5 -5 -10 -11 -10 -5 0 -7 -4 -4 -10 14 -22 -59 -2 -95 26
-8 6 -36 19 -62 29 -27 10 -48 22 -48 26 0 5 -7 9 -15 9 -8 0 -15 1 -15 3 0 9
156 316 172 339 l18 27 -32 25 c-44 33 -88 44 -88 22 0 -9 -4 -16 -10 -16 -5
0 -10 -5 -10 -12 0 -8 -141 -305 -155 -326 -3 -3 -109 41 -115 48 -3 4 -26 15
-52 26 -27 10 -48 23 -48 27 0 4 8 22 17 40 9 18 18 34 18 37 6 22 48 106 56
111 6 3 9 8 8 10 -2 2 18 48 45 102 44 90 64 153 46 142 -4 -3 -24 2 -44 10
-43 18 -49 18 -64 3z"/>
<path d="M8720 6836 c-36 -13 -77 -28 -92 -34 -15 -6 -53 -19 -85 -28 -32 -9
-62 -20 -68 -24 -5 -5 -46 -18 -90 -31 -44 -13 -82 -26 -85 -29 -3 -3 -41 -17
-85 -30 -44 -13 -82 -27 -85 -30 -8 -10 -122 -40 -130 -35 -5 3 -4 -10 1 -28
4 -17 14 -53 20 -79 7 -27 15 -48 19 -48 4 0 18 -37 30 -82 13 -46 27 -85 31
-88 4 -3 17 -43 30 -90 13 -47 27 -86 31 -88 4 -2 8 -13 8 -25 0 -46 13 -51
74 -30 31 10 56 24 56 31 0 7 -9 32 -19 55 -11 23 -27 69 -36 102 -10 33 -21
65 -25 70 -5 6 -18 46 -31 90 -13 44 -28 83 -33 87 -6 4 -8 9 -6 11 21 16 100
49 152 63 35 8 68 19 73 24 6 4 42 17 80 29 39 12 84 28 100 36 17 7 60 21 98
30 37 10 67 21 67 25 0 4 27 14 61 21 l61 14 -5 36 c-6 42 -27 92 -42 95 -5 1
-39 -8 -75 -20z"/>
<path d="M1872 6573 c-6 -10 -13 -41 -17 -70 l-7 -52 41 -21 c23 -11 41 -24
41 -28 0 -4 14 -13 30 -20 27 -12 84 -54 133 -97 9 -8 19 -15 22 -15 5 0 111
-72 173 -117 21 -15 56 -41 80 -57 23 -17 52 -39 63 -48 l21 -17 -23 -6 c-26
-6 -93 -20 -299 -62 -74 -15 -136 -31 -138 -35 -2 -5 -13 -8 -25 -8 -12 0 -70
-10 -129 -21 -118 -24 -112 -18 -123 -113 l-7 -59 49 8 c26 4 53 10 58 14 6 5
66 18 135 30 69 12 132 26 141 30 8 5 69 19 135 31 65 12 128 25 139 30 11 5
63 16 115 26 134 24 139 26 146 74 4 22 11 43 15 46 26 15 4 44 -68 89 -42 27
-85 57 -95 67 -10 10 -22 18 -26 18 -5 0 -17 8 -28 18 -10 10 -37 29 -59 42
-22 13 -49 32 -59 42 -11 10 -23 18 -28 18 -4 0 -16 8 -26 18 -10 9 -58 44
-107 77 -50 33 -127 88 -173 122 -46 35 -85 63 -87 63 -3 0 -8 -8 -13 -17z"/>
<path d="M8830 6069 c-150 -20 -188 -24 -477 -54 -162 -18 -173 -20 -173 -39
0 -12 7 -79 15 -151 8 -71 15 -151 15 -177 0 -27 4 -48 9 -48 5 0 12 -43 16
-95 l7 -95 51 0 c79 0 79 0 67 121 -6 57 -15 118 -20 134 -4 17 -11 70 -15
119 -5 68 -4 87 5 81 7 -4 15 -3 19 2 3 5 119 20 256 32 138 13 259 27 270 31
16 8 103 18 163 20 15 0 17 86 2 95 -5 3 -10 15 -10 26 0 23 -4 23 -200 -2z"/>
<path d="M2447 5400 c6 -118 13 -228 15 -245 l3 -30 -100 -5 c-55 -3 -105 -8
-112 -13 -6 -4 -18 -5 -26 -1 -11 4 -16 42 -21 192 -4 103 -10 197 -13 210 -4
19 -12 22 -53 22 -71 0 -73 -6 -66 -167 4 -76 9 -166 12 -199 l5 -61 -112 -8
c-83 -5 -114 -4 -119 5 -4 7 -10 85 -14 174 -4 88 -9 189 -12 224 l-6 62 -54
0 c-40 0 -56 -4 -61 -16 -11 -28 19 -593 32 -597 10 -5 464 15 730 31 l120 7
-4 175 c-2 96 -8 185 -12 198 -5 13 -9 71 -9 130 0 59 -4 113 -9 120 -5 9 -27
12 -67 10 l-59 -3 12 -215z"/>
<path d="M8284 5108 c-42 -46 -77 -104 -99 -163 -10 -27 -23 -56 -29 -63 -15
-21 -14 -254 2 -259 6 -3 12 -11 12 -19 0 -8 18 -34 41 -58 60 -66 144 -90
231 -66 45 13 132 105 160 170 11 24 23 47 27 50 4 3 16 28 27 55 10 28 36 69
58 93 33 36 44 42 78 42 90 0 126 -89 93 -235 -9 -41 -19 -75 -23 -75 -4 0
-16 -18 -26 -40 -10 -22 -27 -47 -38 -56 -26 -24 -23 -40 11 -54 16 -6 32 -18
35 -26 14 -37 70 11 108 92 13 27 26 51 30 54 14 11 38 136 38 198 0 103 -17
150 -74 208 -70 69 -155 91 -231 60 -45 -19 -110 -80 -125 -117 -7 -16 -17
-29 -22 -29 -5 0 -7 -4 -3 -9 3 -5 1 -12 -4 -15 -5 -3 -29 -47 -54 -98 -62
-128 -98 -157 -172 -137 -22 6 -41 22 -56 45 -19 31 -21 45 -16 109 3 40 10
81 16 91 5 11 17 40 27 66 9 26 22 49 30 52 8 3 14 12 14 19 0 8 16 28 35 44
19 17 35 34 35 39 0 15 -67 64 -88 64 -10 0 -32 -15 -48 -32z"/>
<path d="M2215 4812 c-6 -5 -32 -17 -60 -27 -80 -30 -144 -84 -213 -183 -38
-54 -57 -171 -44 -272 5 -47 16 -98 23 -115 7 -16 11 -34 10 -39 -1 -5 2 -12
6 -15 5 -3 29 -67 53 -141 24 -74 45 -137 47 -139 4 -5 155 39 168 49 6 5 46
18 90 31 44 13 82 26 85 30 3 4 41 18 85 30 44 12 82 25 85 29 3 4 44 18 93
31 48 13 87 27 87 31 0 4 27 13 60 20 33 6 60 17 60 24 0 15 -18 70 -39 119
-10 22 -24 63 -31 90 -8 28 -17 52 -20 55 -4 3 -17 40 -30 83 -13 42 -26 77
-30 77 -4 0 -13 13 -20 29 -27 67 -177 191 -229 191 -6 0 -11 5 -11 10 0 12
-212 14 -225 2z m236 -153 c76 -40 147 -129 169 -209 7 -25 16 -50 20 -55 5
-6 17 -42 28 -81 l20 -70 -37 -16 c-20 -9 -65 -24 -101 -33 -36 -10 -69 -21
-75 -26 -5 -4 -41 -16 -80 -28 -38 -12 -83 -28 -100 -35 -49 -22 -172 -54
-182 -47 -6 3 -18 31 -27 61 -10 30 -24 69 -32 86 -54 122 -40 287 33 369 34
38 97 79 143 92 53 15 187 11 221 -8z"/>
<path d="M7974 4283 c-3 -10 -12 -35 -20 -56 -17 -46 -17 -47 1 -47 8 0 15 -4
15 -8 0 -5 25 -16 55 -26 30 -9 61 -24 70 -32 8 -9 15 -12 15 -8 0 3 6 2 13
-3 6 -5 33 -17 60 -27 26 -10 47 -21 47 -25 0 -4 25 -15 55 -25 30 -9 60 -23
67 -30 8 -7 37 -21 66 -30 29 -10 58 -23 65 -30 6 -6 31 -18 53 -25 67 -22 69
-24 54 -63 -8 -18 -16 -35 -20 -38 -3 -3 -16 -32 -29 -65 -14 -33 -28 -62 -33
-65 -4 -4 -10 -20 -14 -37 -6 -28 -3 -32 38 -52 24 -11 49 -21 55 -21 9 0 73
118 73 135 0 2 23 53 51 112 97 206 116 248 129 283 8 19 22 46 32 59 22 29
24 61 3 61 -8 0 -15 4 -15 8 0 5 -17 14 -39 20 -48 15 -51 15 -51 0 0 -6 -13
-38 -29 -72 -15 -34 -31 -71 -35 -83 -4 -13 -12 -23 -18 -23 -5 0 -8 -7 -4
-15 3 -8 2 -15 -3 -15 -5 0 -11 -9 -14 -20 -5 -19 -6 -19 -61 5 -30 13 -64 29
-73 34 -10 5 -43 20 -73 34 -30 14 -84 38 -120 55 -36 16 -101 46 -145 66 -44
21 -102 48 -128 62 -58 28 -86 31 -93 7z"/>
<path d="M7838 3959 c-39 -52 -46 -73 -27 -85 6 -3 19 -25 30 -48 11 -22 29
-58 40 -80 20 -39 19 -73 -2 -60 -8 5 -9 3 -4 -5 7 -13 -33 -58 -47 -54 -4 2
-5 -4 -2 -12 4 -8 -1 -17 -10 -21 -9 -3 -16 -10 -16 -15 0 -18 -164 -209 -180
-209 -8 0 -40 7 -70 16 -30 8 -60 16 -67 18 -7 1 -16 5 -19 9 -17 17 -62 6
-79 -19 -9 -14 -25 -34 -36 -45 -26 -26 -18 -49 16 -49 14 0 25 -4 25 -8 0 -4
44 -16 98 -27 53 -10 111 -24 127 -31 17 -7 77 -23 135 -35 58 -12 107 -25
110 -29 3 -4 57 -17 120 -30 63 -12 117 -26 120 -30 3 -3 34 -13 68 -20 l64
-13 38 44 c22 24 39 51 40 60 0 8 -13 35 -29 60 -16 24 -35 61 -42 82 -7 20
-16 37 -20 37 -4 0 -17 26 -30 58 -12 31 -26 59 -29 62 -3 3 -44 82 -90 175
-47 94 -87 172 -90 175 -3 3 -16 28 -28 55 -39 91 -57 124 -67 125 -5 0 -27
-23 -47 -51z m132 -384 c0 -8 4 -15 9 -15 5 0 17 -21 27 -46 9 -25 25 -55 34
-67 9 -12 25 -42 35 -67 11 -25 23 -47 26 -50 4 -3 16 -28 27 -57 17 -45 17
-51 3 -43 -9 5 -56 18 -106 30 -49 11 -99 25 -110 30 -11 5 -33 11 -50 15 -16
3 -47 11 -68 16 -38 10 -38 10 -22 35 9 14 24 34 33 44 9 11 46 58 82 104 65
86 80 99 80 71z"/>
<path d="M2946 3761 c-3 -4 -19 -11 -36 -14 -45 -10 -118 -82 -131 -131 -6
-22 -16 -51 -22 -64 -8 -16 -7 -26 1 -34 7 -7 12 -21 12 -33 0 -18 -5 -20 -46
-16 -62 4 -137 -35 -184 -97 -27 -37 -35 -58 -38 -102 -4 -57 5 -88 49 -160
22 -36 177 -221 211 -252 11 -10 17 -22 13 -28 -4 -6 -2 -9 3 -8 5 2 27 -16
49 -40 l40 -43 58 53 c32 29 73 67 91 83 18 17 57 51 86 76 29 26 94 83 143
126 50 44 103 91 119 104 16 13 39 35 52 47 13 13 28 21 34 17 6 -3 9 -3 8 2
-2 5 7 19 20 33 28 30 28 33 -8 68 -30 31 -40 49 -18 36 7 -4 8 -3 4 5 -4 6
-11 9 -16 6 -10 -6 -106 103 -102 116 1 5 -2 8 -6 7 -4 -2 -23 13 -41 32 -163
172 -166 174 -252 204 -49 18 -85 20 -93 7z m119 -150 c22 -10 59 -40 83 -67
24 -27 60 -68 80 -91 20 -24 52 -59 70 -80 l33 -37 -36 -33 c-20 -18 -41 -32
-47 -30 -7 1 -12 -3 -13 -10 0 -7 -22 -33 -50 -58 l-50 -46 -47 53 c-26 29
-44 56 -42 60 3 5 1 7 -4 6 -11 -3 -79 68 -119 125 -55 78 -40 182 32 213 41
18 63 17 110 -5z m-249 -284 c16 -8 57 -46 91 -83 34 -38 73 -80 86 -94 59
-60 56 -68 -53 -160 -36 -30 -68 -59 -72 -64 -7 -10 -33 15 -139 137 -49 57
-72 94 -85 134 -11 36 -14 57 -7 61 6 4 13 17 17 29 16 50 101 71 162 40z"/>
<path d="M3527 3219 c-35 -53 -34 -62 8 -82 19 -9 35 -21 35 -27 0 -5 5 -10
10 -10 6 0 29 -12 52 -27 23 -16 55 -37 73 -48 102 -65 195 -129 195 -135 0
-4 -13 -24 -30 -45 -16 -21 -30 -41 -30 -46 0 -4 -6 -14 -13 -21 -7 -7 -23
-31 -37 -53 -13 -22 -24 -41 -26 -43 -2 -4 -117 68 -124 78 -3 4 -23 17 -45
29 -22 12 -71 44 -110 71 -38 27 -73 50 -77 50 -3 0 -18 -21 -33 -47 -26 -47
-26 -48 -6 -63 40 -30 88 -62 156 -105 39 -24 75 -48 80 -52 6 -5 27 -19 48
-32 24 -15 36 -29 33 -37 -9 -24 -99 -159 -108 -162 -4 -2 -6 -7 -3 -12 11
-18 -24 -17 -43 1 -12 10 -24 19 -28 19 -14 0 -294 191 -290 198 2 4 -10 8
-28 9 -28 2 -35 -2 -49 -32 -9 -19 -21 -35 -27 -35 -25 0 -6 -28 33 -50 23
-13 53 -32 67 -42 23 -17 161 -109 199 -133 9 -5 37 -25 64 -42 26 -18 51 -33
55 -33 5 0 19 -11 32 -25 32 -34 53 -31 82 13 36 53 141 214 153 233 19 32
113 174 134 204 115 165 149 224 138 239 -7 9 -48 38 -92 66 -44 27 -87 55
-95 60 -8 6 -51 34 -95 62 -44 28 -82 54 -85 57 -7 9 -135 91 -141 91 -3 0
-17 -18 -32 -41z"/>
<path d="M7225 3204 c-11 -2 -46 -9 -77 -16 -32 -6 -58 -14 -58 -18 0 -4 -14
-13 -31 -21 -36 -14 -126 -83 -149 -112 -40 -53 -90 -143 -90 -164 0 -13 -4
-23 -10 -23 -17 0 -11 -39 8 -49 9 -5 39 -11 66 -12 l50 -4 16 55 c24 80 75
148 135 179 27 14 53 30 57 35 3 6 47 12 97 14 83 4 95 2 143 -23 76 -39 134
-99 159 -165 17 -45 20 -71 17 -140 -5 -100 -24 -144 -90 -206 -64 -62 -119
-86 -213 -93 l-80 -6 -3 -35 c-2 -19 -8 -41 -14 -47 -22 -27 10 -43 86 -43 66
0 174 23 186 39 3 4 21 16 41 28 42 24 85 58 114 91 11 13 30 35 42 49 12 14
30 46 39 71 10 26 22 53 28 61 6 8 11 57 10 115 0 84 -4 108 -22 141 -12 21
-22 45 -22 51 0 7 -12 26 -26 43 -14 17 -23 35 -19 41 4 6 3 9 -2 8 -4 -1 -24
13 -43 31 -44 42 -125 94 -168 109 -39 13 -147 23 -177 16z"/>
<path d="M6620 2874 c-14 -7 -33 -14 -42 -14 -11 0 -18 -8 -18 -20 0 -11 4
-20 8 -20 4 0 18 -35 32 -77 13 -43 27 -83 31 -88 5 -6 -2 -33 -15 -60 -13
-28 -32 -68 -42 -90 -9 -22 -18 -41 -20 -43 -3 -5 -218 110 -225 120 -3 5 -10
10 -15 10 -15 0 -89 40 -96 52 -4 6 -8 8 -8 4 0 -4 -15 1 -32 12 -40 24 -56
25 -124 3 -40 -12 -53 -21 -57 -39 -2 -13 -1 -21 4 -18 4 2 30 -8 56 -23 94
-55 108 -63 150 -83 23 -11 45 -25 48 -30 3 -5 29 -20 58 -34 81 -40 182 -103
182 -112 -1 -22 -29 -94 -37 -94 -4 0 -7 -3 -6 -7 3 -9 -43 -125 -52 -133 -3
-3 -15 -32 -25 -64 -11 -33 -24 -64 -30 -70 -12 -13 -46 -109 -40 -114 8 -8
118 30 136 47 10 10 31 46 45 82 14 35 29 69 34 74 4 6 17 37 29 70 13 33 26
64 30 70 5 5 16 34 26 63 11 28 23 52 27 52 4 0 7 3 6 8 -1 4 8 29 20 56 12
27 22 54 22 61 0 7 6 18 14 24 12 10 18 2 33 -46 9 -32 20 -60 24 -63 3 -3 16
-36 28 -75 13 -38 29 -83 36 -100 7 -16 18 -47 25 -67 13 -42 23 -45 96 -27
35 9 44 16 44 33 0 23 -38 144 -50 161 -4 6 -18 42 -30 80 -12 39 -26 75 -30
80 -4 6 -18 44 -31 85 -13 41 -26 77 -30 80 -3 3 -16 37 -29 75 -12 39 -26 75
-30 80 -4 6 -17 40 -29 78 -21 61 -25 67 -49 66 -15 -1 -38 -7 -52 -15z"/>
<path d="M4320 2759 c-7 -13 -37 -62 -68 -109 -30 -47 -69 -107 -87 -135 -93
-146 -213 -334 -243 -380 -14 -22 -35 -50 -45 -62 -30 -34 -18 -54 38 -69 28
-7 53 -13 57 -14 5 0 44 55 87 123 44 67 89 136 101 152 12 17 41 62 65 100
25 39 50 78 57 87 7 10 29 43 48 74 l35 56 7 -134 c4 -73 12 -187 18 -253 6
-66 14 -165 18 -220 l7 -99 40 -12 c78 -24 79 -23 154 94 39 59 79 121 91 137
11 17 64 96 118 178 l97 147 7 -57 c10 -73 47 -626 43 -633 -2 -3 9 -5 23 -6
15 0 51 -4 81 -9 51 -8 54 -7 46 11 -4 10 -10 53 -12 94 -2 41 -13 206 -23
367 -11 160 -20 317 -20 347 0 63 -15 79 -82 91 -21 4 -38 11 -38 16 0 5 -6 9
-14 9 -7 0 -46 -51 -86 -112 -41 -62 -113 -174 -161 -248 -49 -74 -101 -153
-116 -175 l-28 -40 -7 100 c-28 402 -44 563 -60 578 -8 9 -42 19 -76 23 -56 6
-61 5 -72 -17z"/>
<path d="M5589 2623 c-1 -5 -1 -12 0 -16 1 -4 -5 -15 -14 -23 -25 -26 -19 -78
14 -113 59 -63 151 -23 151 67 0 45 -38 85 -81 86 -19 0 -43 -4 -53 -9 -14 -6
-17 -5 -12 3 4 7 5 12 2 12 -3 0 -7 -3 -7 -7z"/>
</g>
</svg>
