<svg xmlns="http://www.w3.org/2000/svg" xmlns:xlink="http://www.w3.org/1999/xlink" version="1.1" x="0px" y="0px" viewBox="0 0 100 100" enable-background="new 0 0 100 100" xml:space="preserve"><path d="M84.194,31.682c-1.52-8.159-7.926-14.398-15.931-15.919c-6.084-1.198-12.25-1.759-18.253-1.759  c-6.165,0-12.33,0.561-18.413,1.759c-8.166,1.521-14.33,7.84-15.852,15.839c-2.321,12.158-2.321,24.558,0,36.636  c1.521,8.24,7.845,14.399,15.852,15.92c6.083,1.278,12.248,1.839,18.413,1.839c6.164,0,12.247-0.561,18.332-1.76  c8.167-1.6,14.332-7.839,15.852-15.918C86.596,56.159,86.596,43.76,84.194,31.682z M42.05,59.72c0.568,0.603,0.541,1.552-0.062,2.12  c-0.29,0.273-0.66,0.409-1.029,0.409c-0.398,0-0.796-0.158-1.091-0.471L29.722,51.026c-0.546-0.578-0.546-1.481,0-2.06  l10.146-10.746c0.569-0.603,1.519-0.629,2.121-0.061c0.602,0.569,0.629,1.519,0.061,2.121l-9.175,9.716L42.05,59.72z M54.028,39.745  l-5.143,21.217c-0.167,0.687-0.78,1.146-1.457,1.146c-0.117,0-0.235-0.014-0.354-0.042c-0.805-0.195-1.3-1.006-1.104-1.812  l5.143-21.217c0.196-0.805,1.006-1.296,1.812-1.104C53.729,38.129,54.224,38.939,54.028,39.745z M70.278,51.033L60.132,61.779  c-0.295,0.313-0.692,0.47-1.091,0.47c-0.37,0-0.74-0.136-1.03-0.409c-0.602-0.569-0.629-1.519-0.061-2.121l9.175-9.716L57.95,40.28  c-0.568-0.603-0.541-1.552,0.062-2.12s1.552-0.54,2.12,0.062l10.146,10.752C70.824,49.552,70.824,50.455,70.278,51.033z"></path></svg>