<?xml version="1.0" encoding="UTF-8"?>
<svg data-bbox="48 20 104 160" viewBox="0 0 200 200" height="200" width="200" xmlns="http://www.w3.org/2000/svg" data-type="color">
    <g>
        <path d="m152 142.584-.025-31.425c-.001-5.194-.417-8.727-1.216-10.563-.813-1.865-1.936-3.432-3.38-4.732-1.437-1.293-3.888-3.111-7.353-5.445l-15.738-10.054c-2.077-1.503-3.578-2.742-4.489-3.702-.923-.953-1.392-2.795-1.386-5.547l-.018-24.427c-.015-5.874 2.349-8.835 7.069-8.835h2.592c4.849 0 7.267 2.961 7.268 8.835l.018 12.924h16.584l-.008-14.361C151.908 28.414 145.269 20 132.024 20h-10.369c-13.259 0-19.873 8.414-19.857 25.252l.019 30.178c.011 3.832.348 6.949 1.04 9.347.69 2.388 1.821 4.348 3.369 5.86 1.566 1.504 4.067 3.349 7.53 5.533l15.737 10.483c2.082 1.509 3.58 2.728 4.5 3.695.917.947 1.389 2.811 1.387 5.541l.017 25.053c.007 5.752-2.18 8.617-6.554 8.617h-2.931c-4.97 0-7.451-2.865-7.45-8.617l-.008-8.011H101.86l.008 7.392c.013 15.505 4.909 24.335 14.667 26.536l-.397.002-61.055 12.572 22.018-.142 59.419-12.236c.21-.036.408-.085.614-.126l1.022-.211-.108.001c9.295-2.289 13.958-10.318 13.952-24.135z" opacity=".14"/>
        <path d="m118.933 62.992 5.334-14.026c2.431-6.375 1.24-9.589-3.61-9.589h-2.592c-4.72 0-8.311 3.214-10.728 9.589L97.24 75.476c-1.147 2.987-1.44 4.986-.912 6.02.513 1.042 1.501 2.387 2.956 4.018l11.575 10.911c2.498 2.534 4.197 4.505 5.098 5.909.905 1.411 1.38 3.111 1.421 5.135.039 1.993-1.008 5.827-3.158 11.463l-12.988 34.104C94.381 171.017 84.273 180 70.913 180h-10.2c-13.255 0-16.142-9.803-8.674-29.415l3.053-8.022h16.594l-3.309 8.694c-2.382 6.242-1.088 9.352 3.882 9.352h2.931c4.374 0 7.747-3.11 10.122-9.352l10.358-27.19c1.132-2.963 1.432-4.986.907-6.013-.519-1.05-1.513-2.372-2.97-4.01L82.21 102.667c-2.559-2.371-4.296-4.373-5.239-6.005-.922-1.641-1.241-3.768-.943-6.36.301-2.602 1.255-5.984 2.83-10.144l12.478-32.752C98.293 29.132 108.391 20 121.65 20h10.369c13.244 0 16.399 9.131 9.437 27.406l-5.938 15.585h-16.585z" fill="#3A8BCB" data-color="1"/>
    </g>
</svg>
